HIERARCHY
ROOT hip
{
	OFFSET 0.000000 0.000000 0.000000
	CHANNELS 6 Xposition Yposition Zposition Xrotation Zrotation Yrotation 
	JOINT abdomen
	{
		OFFSET 0.000000 3.422050 0.000000
		CHANNELS 3 Xrotation Zrotation Yrotation 
		JOINT chest
		{
			OFFSET 0.000000 8.486693 -0.684411
			CHANNELS 3 Xrotation Zrotation Yrotation 
			JOINT neck
			{
				OFFSET 0.000000 10.266162 -0.273764
				CHANNELS 3 Xrotation Zrotation Yrotation 
				JOINT head
				{
					OFFSET 0.000000 3.148285 0.000000
					CHANNELS 3 Xrotation Zrotation Yrotation 
					End Site
					{
						OFFSET 0.000000 3.148289 0.000000
					}
				}
			}
			JOINT lCollar
			{
				OFFSET 3.422053 6.707223 -0.821293
				CHANNELS 3 Yrotation Zrotation Xrotation 
				JOINT lShldr
				{
					OFFSET 3.285171 0.000000 0.000000
					CHANNELS 3 Zrotation Yrotation Xrotation 
					JOINT lForeArm
					{
						OFFSET 10.129278 0.000000 0.000000
						CHANNELS 3 Yrotation Zrotation Xrotation 
						JOINT lHand
						{
							OFFSET 8.486692 0.000000 0.000000
							CHANNELS 3 Zrotation Yrotation Xrotation 
							End Site
							{
								OFFSET 4.106464 0.000000 0.000000
							}
						}
					}
				}
			}
			JOINT rCollar
			{
				OFFSET -3.558935 6.707223 -0.821293
				CHANNELS 3 Yrotation Zrotation Xrotation 
				JOINT rShldr
				{
					OFFSET -3.148289 0.000000 0.000000
					CHANNELS 3 Zrotation Yrotation Xrotation 
					JOINT rForeArm
					{
						OFFSET -10.266159 0.000000 0.000000
						CHANNELS 3 Yrotation Zrotation Xrotation 
						JOINT rHand
						{
							OFFSET -8.349810 0.000000 0.000000
							CHANNELS 3 Zrotation Yrotation Xrotation 
							End Site
							{
								OFFSET -4.106464 0.000000 0.000000
							}
						}
					}
				}
			}
		}
	}
	JOINT lThigh
	{
		OFFSET 5.338403 -1.642589 1.368821
		CHANNELS 3 Xrotation Zrotation Yrotation 
		JOINT lShin
		{
			OFFSET -2.053232 -20.121670 0.000000
			CHANNELS 3 Xrotation Zrotation Yrotation 
			JOINT lFoot
			{
				OFFSET 0.000000 -19.300380 -1.231939
				CHANNELS 3 Xrotation Yrotation Zrotation 
				End Site
				{
					OFFSET 0.000000 -2.463878 4.653993
				}
			}
		}
	}
	JOINT rThigh
	{
		OFFSET -5.338403 -1.642589 1.368821
		CHANNELS 3 Xrotation Zrotation Yrotation 
		JOINT rShin
		{
			OFFSET 2.053232 -20.121670 0.000000
			CHANNELS 3 Xrotation Zrotation Yrotation 
			JOINT rFoot
			{
				OFFSET 0.000000 -19.300380 -1.231939
				CHANNELS 3 Xrotation Yrotation Zrotation 
				End Site
				{
					OFFSET 0.000000 -2.463878 4.653993
				}
			}
		}
	}
}
MOTION
Frames: 11
Frame Time: 0.066646
-16.199158 6.879879 17.526810 -85.026840 3.432516 3.016918 9.871089 -0.655706 2.490223 37.300205 -3.188800 -6.755569 6.303152 -0.052972 0.166948 16.352858 0.238391 13.733238 41.047085 9.956617 -10.360599 -43.004967 -11.696144 11.774554 -23.477272 -53.444744 5.457390 7.312400 2.040015 49.997852 3.045381 10.850728 -6.549228 61.099453 -4.758387 -15.182751 66.312042 16.711424 2.260784 7.855412 -6.378020 -0.025182 -21.675274 9.121792 13.983836 52.426029 13.697759 -9.014893 12.687658 -2.442464 -0.113799 -42.156281 -29.864552 -29.750771 115.994125 -4.997756 9.996745 -1.075062 -18.340584 -5.611619 
-16.199158 6.879879 17.526810 -85.026840 3.432516 3.016918 9.871089 -0.655706 2.490223 37.300205 -3.188800 -6.755569 6.303152 -0.052972 0.166948 16.226389 0.368654 13.922362 41.047085 9.956617 -10.360599 -43.004967 -11.696144 11.774554 -23.477272 -53.444744 5.457390 7.312400 2.040015 49.997852 3.045381 10.850728 -6.549228 61.100830 -4.592066 -15.185524 66.316803 16.902037 2.264612 7.982337 -6.382390 -0.025878 -21.675274 9.121792 13.983836 52.426029 13.697759 -9.014893 12.687658 -2.442464 -0.113799 -42.000164 -30.001554 -29.999561 115.994125 -4.997756 9.996745 -1.075062 -18.340584 -5.611619 
-16.199158 6.879879 17.526810 -85.026840 3.432516 3.016918 9.871089 -0.655706 2.490223 37.300205 -3.188800 -6.755569 6.303152 -0.052972 0.166948 16.100300 0.499392 14.111292 41.047085 9.956617 -10.360599 -43.004967 -11.696144 11.774554 -23.477272 -53.444744 5.457390 7.312400 2.040015 49.997852 3.045381 10.850728 -6.549228 61.102196 -4.425727 -15.188292 66.321571 17.092688 2.268430 8.109270 -6.386760 -0.026584 -21.675274 9.121792 13.983836 52.426029 13.697759 -9.014893 12.687658 -2.442464 -0.113799 -42.008633 -29.830353 -29.852791 115.994125 -4.997756 9.996745 -1.075062 -18.340584 -5.611619 
-16.199158 6.879879 17.526810 -85.026840 3.432516 3.016918 9.871089 -0.655706 2.490223 37.300205 -3.188800 -6.755569 6.303152 -0.052972 0.166948 15.974580 0.630601 14.300014 41.047085 9.956617 -10.360599 -43.004967 -11.696144 11.774554 -23.477272 -53.444744 5.457390 7.312400 2.040015 49.997852 3.045381 10.850728 -6.549228 61.103558 -4.259367 -15.191053 66.326317 17.283363 2.272235 8.236209 -6.391127 -0.027299 -21.675274 9.121792 13.983836 52.426029 13.697759 -9.014893 12.687657 -2.442464 -0.113798 -42.016575 -29.659109 -29.706282 115.994125 -4.997756 9.996745 -1.075062 -18.340584 -5.611619 
-16.199158 6.879879 17.526810 -85.026840 3.432516 3.016918 9.871089 -0.655706 2.490223 37.300205 -3.188800 -6.755569 6.303152 -0.052972 0.166948 15.849237 0.762279 14.488536 41.047085 9.956617 -10.360599 -43.004967 -11.696144 11.774554 -23.477272 -53.444744 5.457390 7.312400 2.040015 49.997852 3.045381 10.850728 -6.549228 61.104908 -4.092990 -15.193814 66.331055 17.474070 2.276029 8.363153 -6.395494 -0.028025 -21.675274 9.121792 13.983836 52.426029 13.697759 -9.014893 12.687658 -2.442464 -0.113799 -42.023998 -29.487837 -29.560034 115.994125 -4.997756 9.996745 -1.075062 -18.340584 -5.611619 
-16.199158 6.879879 17.526810 -85.026840 3.432516 3.016918 9.871089 -0.655706 2.490223 37.300205 -3.188800 -6.755569 6.303152 -0.052972 0.166948 15.724272 0.894424 14.676850 41.047085 9.956617 -10.360599 -43.004967 -11.696144 11.774554 -23.477272 -53.444744 5.457390 7.312400 2.040015 49.997852 3.045381 10.850728 -6.549228 61.106255 -3.926593 -15.196568 66.335793 17.664803 2.279809 8.490103 -6.399858 -0.028760 -21.675274 9.121792 13.983836 52.426029 13.697759 -9.014893 12.687658 -2.442464 -0.113799 -42.030918 -29.316521 -29.414036 115.994125 -4.997756 9.996745 -1.075062 -18.340584 -5.611619 
-16.199158 6.879879 17.526810 -85.026840 3.432516 3.016918 9.871089 -0.655706 2.490223 37.300205 -3.188800 -6.755569 6.303152 -0.052972 0.166948 15.599693 1.027032 14.864966 41.047085 9.956617 -10.360599 -43.004967 -11.696144 11.774554 -23.477272 -53.444744 5.457390 7.312400 2.040015 49.997852 3.045381 10.850728 -6.549228 61.107594 -3.760179 -15.199319 66.340530 17.855560 2.283577 8.617056 -6.404221 -0.029505 -21.675274 9.121792 13.983836 52.426029 13.697759 -9.014893 12.687657 -2.442464 -0.113798 -42.037327 -29.145180 -29.268297 115.994125 -4.997756 9.996745 -1.075062 -18.340584 -5.611619 
-16.199158 6.879879 17.526810 -85.026840 3.432516 3.016918 9.871089 -0.655706 2.490223 37.300205 -3.188800 -6.755569 6.303152 -0.052972 0.166948 15.475488 1.160100 15.052870 41.047085 9.956617 -10.360599 -43.004967 -11.696144 11.774554 -23.477272 -53.444744 5.457390 7.312400 2.040015 49.997852 3.045381 10.850728 -6.549228 61.108940 -3.593750 -15.202070 66.345253 18.046347 2.287334 8.744016 -6.408581 -0.030260 -21.675274 9.121792 13.983836 52.426029 13.697759 -9.014893 12.687658 -2.442464 -0.113799 -42.043228 -28.973806 -29.122814 115.994125 -4.997756 9.996745 -1.075062 -18.340584 -5.611619 
-16.199158 6.879879 17.526810 -85.026840 3.432516 3.016918 9.871089 -0.655706 2.490223 37.300205 -3.188800 -6.755569 6.303152 -0.052972 0.166948 15.351668 1.293626 15.240565 41.047085 9.956617 -10.360599 -43.004967 -11.696144 11.774554 -23.477272 -53.444744 5.457390 7.312400 2.040015 49.997852 3.045381 10.850728 -6.549228 61.110241 -3.427305 -15.204811 66.349960 18.237152 2.291079 8.870977 -6.412940 -0.031024 -21.675274 9.121792 13.983836 52.426029 13.697759 -9.014893 12.687658 -2.442464 -0.113799 -42.048622 -28.802406 -28.977562 115.994125 -4.997756 9.996745 -1.075062 -18.340584 -5.611619 
-16.199158 6.879879 17.526810 -85.026840 3.432516 3.016918 9.871089 -0.655706 2.490223 37.300205 -3.188800 -6.755569 6.303152 -0.052972 0.166948 15.228236 1.427606 15.428056 41.047085 9.956617 -10.360599 -43.004967 -11.696144 11.774554 -23.477272 -53.444744 5.457390 7.312400 2.040015 49.997852 3.045381 10.850728 -6.549228 61.111561 -3.260844 -15.207551 66.354668 18.427982 2.294811 8.997945 -6.417298 -0.031798 -21.675274 9.121792 13.983837 52.426029 13.697759 -9.014893 12.687657 -2.442464 -0.113798 -42.053505 -28.630978 -28.832567 115.994125 -4.997756 9.996745 -1.075062 -18.340584 -5.611619 
-16.199158 6.879879 17.526810 -85.026840 3.432516 3.016918 9.871089 -0.655706 2.490223 37.300205 -3.188800 -6.755569 6.303152 -0.052972 0.166948 15.105192 1.562038 15.615335 41.047085 9.956617 -10.360599 -43.004967 -11.696144 11.774554 -23.477272 -53.444744 5.457390 7.312400 2.040015 49.997852 3.045381 10.850728 -6.549228 61.112850 -3.094368 -15.210283 66.359375 18.618837 2.298533 9.124916 -6.421655 -0.032582 -21.675274 9.121792 13.983837 52.426029 13.697759 -9.014893 12.687658 -2.442464 -0.113799 -42.057896 -28.459532 -28.687817 115.994125 -4.997756 9.996745 -1.075062 -18.340584 -5.611619 
